<?xml version="1.0" encoding="UTF-8"?>
<svg version="1.1" xmlns="http://www.w3.org/2000/svg" width="512" height="512">
<path d="M0 0 C20.02957984 17.48853458 31.74610311 41.90002572 33.75 68.3125 C35.37136786 95.55727072 26.36587762 121.24719708 8.41845703 141.84033203 C1.49996805 149.53541102 -6.2434564 155.85861603 -15.18182373 161.0940094 C-16.5445256 161.89686138 -17.88872182 162.73211573 -19.21060181 163.60054016 C-27.24392802 168.35163063 -35.33351548 168.07776851 -44.359375 168.046875 C-46.01548889 168.05534434 -47.67159713 168.06498971 -49.32769775 168.07574463 C-52.7873639 168.0920674 -56.24638935 168.08949375 -59.70605469 168.07421875 C-64.10187706 168.05697625 -68.4953006 168.09402626 -72.89077377 168.14648056 C-76.30908357 168.17984936 -79.72683354 168.18011388 -83.1452713 168.17133331 C-84.76373465 168.1716891 -86.3822377 168.18272267 -88.00054169 168.20543671 C-108.08488571 168.44989423 -122.09454708 158.59180209 -136.5546875 145.05859375 C-156.00230054 125.24457641 -164.64069864 99.3803812 -164.55273438 71.95532227 C-164.09185207 45.71703674 -152.83518843 22.48786657 -135 3.625 C-121.77871186 -9.01640708 -105.95251731 -17.21694043 -88.25 -21.6875 C-86.91195312 -22.02587891 -86.91195312 -22.02587891 -85.546875 -22.37109375 C-54.92625044 -28.71393741 -23.71323521 -19.81793071 0 0 Z M-71.25 4.3125 C-72.29976964 7.46180893 -72.35131595 9.70064456 -72.3125 13 C-72.30347656 13.99386719 -72.29445313 14.98773438 -72.28515625 16.01171875 C-72.27355469 16.77097656 -72.26195312 17.53023437 -72.25 18.3125 C-73.054375 18.35375 -73.85875 18.395 -74.6875 18.4375 C-83.45127491 20.59000612 -89.69602985 26.87636497 -94.50390625 34.23046875 C-98.60946832 41.85508402 -98.43381281 50.87435992 -96.625 59.18359375 C-93.80271584 67.25986225 -88.24592962 73.94525311 -80.8125 78.1875 C-75.54709971 80.58681926 -70.01886678 81.43234063 -64.31469727 82.14990234 C-58.17197626 82.99790892 -54.16265963 85.19306636 -49.9375 89.875 C-46.28080084 95.15689879 -46.56694005 101.11785288 -47.25 107.3125 C-49.05020941 112.3256392 -52.23423072 116.29361713 -57.09375 118.69140625 C-62.9106492 120.36692613 -68.98300152 120.05442677 -74.6875 118.1875 C-79.31034468 114.80493072 -82.63181486 110.84129923 -84.25 105.3125 C-84.394375 104.11625 -84.53875 102.92 -84.6875 101.6875 C-85.01426924 98.42511384 -85.01426924 98.42511384 -86.4375 96.375 C-89.16087907 94.7785364 -91.15953021 94.92619128 -94.25 95.3125 C-96.38064999 96.90171423 -97.14913004 97.81723757 -97.68359375 100.44140625 C-97.69894365 110.00439666 -94.83215486 117.5578828 -88.24609375 124.5546875 C-83.50280692 128.73175026 -78.47388427 131.27518596 -72.25 132.3125 C-72.27320313 132.97636719 -72.29640625 133.64023438 -72.3203125 134.32421875 C-72.54978178 141.07142553 -72.54978178 141.07142553 -70.25 147.3125 C-67.45129973 148.71185013 -65.34501208 148.56515405 -62.25 148.3125 C-60.43792065 147.27845688 -60.43792065 147.27845688 -59.25 145.3125 C-58.8863838 142.11111932 -58.8863838 142.11111932 -59.0625 138.625 C-59.08957031 137.44550781 -59.11664063 136.26601562 -59.14453125 135.05078125 C-59.19673828 133.69533203 -59.19673828 133.69533203 -59.25 132.3125 C-58.34121094 132.19132813 -57.43242187 132.07015625 -56.49609375 131.9453125 C-49.11597588 130.50658916 -42.81833934 125.14466926 -38.25 119.3125 C-33.6054236 110.9944859 -31.51499945 102.0641307 -33.93359375 92.65234375 C-37.53107238 82.99438244 -43.06195811 76.12090859 -52.25 71.3125 C-56.56465043 69.63162109 -60.59517286 68.93479067 -65.1875 68.4375 C-74.82549603 67.0780353 -74.82549603 67.0780353 -79.25 63.3125 C-83.26277515 57.50940979 -85.25091771 52.31892396 -84.25 45.3125 C-82.85795257 40.17662315 -81.00459218 36.38915866 -76.5625 33.3125 C-70.64196629 30.15488202 -65.03284107 29.57549569 -58.5625 31.3125 C-53.77117833 33.19390903 -50.70200878 35.7655711 -48.25 40.3125 C-47.30074206 43.40860289 -46.5820532 46.45768423 -45.98828125 49.640625 C-45.20481649 52.47602126 -44.65759347 53.65011403 -42.25 55.3125 C-38.67243314 55.31332535 -38.67243314 55.31332535 -35.25 54.3125 C-32.73355428 50.53783142 -32.65936373 47.67582541 -33.25 43.3125 C-36.04421751 33.29459519 -41.24670625 25.98692826 -50.05859375 20.5 C-52.70568913 19.06556685 -55.33445475 18.06007571 -58.25 17.3125 C-58.26417969 16.49265625 -58.27835938 15.6728125 -58.29296875 14.828125 C-58.39993304 8.13748075 -58.39993304 8.13748075 -61.625 2.5625 C-65.93710439 0.50911696 -67.84033507 1.24380156 -71.25 4.3125 Z " fill="#000000" transform="translate(251.25,80.6875)"/>
<path d="M0 0 C33.66 0 67.32 0 102 0 C102.99 13.86 103.98 27.72 105 42 C107.08837672 58.84623887 109.83239235 75.25857383 113.60449219 91.78710938 C114 94 114 94 114 98 C112.42424194 98.30852905 112.42424194 98.30852905 110.81665039 98.62329102 C86.95424396 103.31531219 63.47665882 108.30686085 40.44018555 116.23925781 C38 117 38 117 36 117 C34.36945112 114.59270572 32.88645682 112.20259267 31.4375 109.6875 C30.99277344 108.91623779 30.54804687 108.14497559 30.08984375 107.3503418 C10.77610418 73.34896966 2.999903 38.99873895 0 0 Z " fill="#000000" transform="translate(28,261)"/>
<path d="M0 0 C33.66 0 67.32 0 102 0 C99.63773648 29.52829397 99.63773648 29.52829397 98 37.6875 C97.79197754 38.73526611 97.58395508 39.78303223 97.36962891 40.86254883 C91.66848377 67.72894871 81.30992676 94.14477982 66 117 C60.58565386 115.55634777 55.1884616 114.0817959 49.8359375 112.421875 C32.77342639 107.16789868 15.48580786 103.50731369 -2 100 C-3.05477539 99.78811035 -4.10955078 99.5762207 -5.19628906 99.35791016 C-7.46384965 98.90352192 -9.73168812 98.45061993 -12 98 C-11.38400948 92.31919855 -10.4099228 86.777429 -9.28662109 81.17578125 C-3.85702843 54.08792414 -1.99364095 27.91097324 0 0 Z " fill="#000000" transform="translate(382,261)"/>
<path d="M0 0 C35.31 0 70.62 0 107 0 C107 29.7 107 59.4 107 90 C90.665 90.495 90.665 90.495 74 91 C67.09288656 91.42160616 60.20619064 91.87008606 53.3125 92.4375 C51.6224387 92.57061368 49.93233361 92.7031725 48.2421875 92.83520508 C36.15265218 93.78808023 24.06991735 94.82345989 12 96 C9.43049652 88.89651801 7.83765082 81.86520746 6.5 74.4375 C6.28569336 73.2623584 6.07138672 72.0872168 5.85058594 70.87646484 C3.79049544 59.30049628 2.25391522 47.68836485 1 36 C0.80083984 34.23076172 0.80083984 34.23076172 0.59765625 32.42578125 C-0.43396626 21.61494264 0 10.90434585 0 0 Z " fill="#000000" transform="translate(143,261)"/>
<path d="M0 0 C35.31 0 70.62 0 107 0 C107 26.83312988 107 26.83312988 105.8125 37.625 C105.68230469 38.86499756 105.55210937 40.10499512 105.41796875 41.38256836 C103.41298834 59.44675838 100.23531214 77.32921528 96 95 C92.26123684 95.92143953 89.25440054 95.98316103 85.44140625 95.51171875 C84.34932861 95.3832959 83.25725098 95.25487305 82.13208008 95.12255859 C80.95411865 94.97898926 79.77615723 94.83541992 78.5625 94.6875 C52.41700073 91.71275039 26.33758667 90.79810869 0 90 C0 60.3 0 30.6 0 0 Z " fill="#000000" transform="translate(262,261)"/>
<path d="M0 0 C0 39.27 0 78.54 0 119 C-16.29989712 115.5071649 -16.29989712 115.5071649 -22.25 112.3125 C-22.9212793 111.96219727 -23.59255859 111.61189453 -24.28417969 111.25097656 C-30.09544666 108.12570684 -35.15195781 104.48834873 -40 100 C-40.96421875 99.11570312 -41.9284375 98.23140625 -42.921875 97.3203125 C-66.62389359 74.94515333 -86.23971544 37.87667729 -92 6 C-61.44401028 1.97692906 -30.8204312 0 0 0 Z " fill="#000000" transform="translate(250,363)"/>
<path d="M0 0 C16.20394235 0 16.20394235 0 23.28125 0.33203125 C24.09099274 0.36826599 24.90073547 0.40450073 25.73501587 0.4418335 C28.32360818 0.56039781 30.91180884 0.68549486 33.5 0.8125 C34.83463287 0.87677689 34.83463287 0.87677689 36.19622803 0.94235229 C54.85029269 1.85538476 73.52295428 3.18827565 92 6 C83.81615509 42.40106019 62.34276437 87.00824751 29.9375 108 C20.07654524 114.10103216 11.49662927 116.90970377 0 119 C0 79.73 0 40.46 0 0 Z " fill="#000000" transform="translate(262,363)"/>
<path d="M0 0 C0.70719885 -0.00694553 1.41439771 -0.01389106 2.14302683 -0.02104706 C4.50692921 -0.03930781 6.86982693 -0.0290561 9.23376465 -0.01878357 C10.93080902 -0.0258425 12.6278471 -0.03458741 14.32487488 -0.04489136 C18.93024268 -0.06739675 23.53526701 -0.06444317 28.14066887 -0.05556989 C31.98527502 -0.05046102 35.82981657 -0.05775164 39.67441607 -0.06504196 C48.74324722 -0.08204424 57.81191012 -0.07847136 66.8807373 -0.06175232 C76.23819186 -0.04482435 85.59518015 -0.06067402 94.95258379 -0.0929752 C102.98670165 -0.1196583 111.02067426 -0.12695076 119.05483198 -0.11846012 C123.85329506 -0.11352792 128.65147747 -0.11576252 133.4499054 -0.13624763 C137.96120718 -0.1545851 142.47183726 -0.14867005 146.9831028 -0.12404823 C148.63871232 -0.11903444 150.29437286 -0.1225449 151.94994164 -0.13519669 C154.21048479 -0.15110523 156.46880989 -0.13620137 158.72924805 -0.11352539 C159.99390648 -0.11293908 161.25856491 -0.11235277 162.56154633 -0.1117487 C166.77876533 0.68802609 168.26336143 2.15968515 170.86462402 5.5146637 C171.34008007 8.45815168 171.52252821 10.80610805 171.45837402 13.73731995 C171.45841431 14.51981613 171.45845459 15.30231232 171.45849609 16.10852051 C171.45315191 17.75676032 171.435616 19.40500043 171.40661621 21.05299377 C171.36469477 23.57291106 171.36555541 26.09015895 171.37243652 28.61036682 C171.36194524 30.21520306 171.34900745 31.82002556 171.33337402 33.42481995 C171.33317261 34.17594559 171.33297119 34.92707123 171.33276367 35.70095825 C171.23618563 39.97578981 170.91310934 42.46242428 167.86462402 45.5146637 C165.48312473 46.03478813 165.48312473 46.03478813 162.61134338 46.06297302 C160.977789 46.09289841 160.977789 46.09289841 159.31123352 46.12342834 C157.51827095 46.12542236 157.51827095 46.12542236 155.68908691 46.12745667 C154.4302066 46.1441037 153.17132629 46.16075073 151.8742981 46.17790222 C148.41713327 46.22183074 144.96032232 46.23939726 141.5029099 46.24955511 C139.33903463 46.25684529 137.17525171 46.26932753 135.01141167 46.28355789 C127.45031554 46.33258392 119.88949397 46.35865339 112.32824707 46.36573792 C105.30160556 46.37298691 98.27672303 46.43260386 91.25061804 46.51654708 C85.20534937 46.58621512 79.16065897 46.6168394 73.11499208 46.61822999 C69.51004491 46.61980859 65.9068841 46.63694261 62.30235481 46.69422531 C36.30703481 47.08247206 36.30703481 47.08247206 29.27258301 40.61793518 C27.77000883 38.94614573 26.29495231 37.24866777 24.86462402 35.5146637 C22.30506482 33.67833395 19.64647939 32.17373278 16.86462402 30.7021637 C16.19165283 30.33526428 15.51868164 29.96836487 14.82531738 29.59034729 C6.18095537 24.95801096 -2.79685744 21.47186123 -12.13537598 18.5146637 C-12.27063737 16.26631874 -12.36748402 14.01563856 -12.44787598 11.7646637 C-12.5348877 9.88521057 -12.5348877 9.88521057 -12.62365723 7.9677887 C-12.13537598 4.5146637 -12.13537598 4.5146637 -10.0508194 2.33100986 C-6.4335687 0.07743177 -4.24621646 0.00942452 0 0 Z " fill="#000000" transform="translate(225.1353759765625,29.485336303710938)"/>
<path d="M0 0 C3.5225396 0.08309751 7.04512781 0.08264164 10.56849456 0.0921464 C16.47826709 0.11968418 22.38510683 0.20202908 28.29366851 0.32331705 C36.62391241 0.4941615 44.95269 0.56084044 53.28441179 0.60917115 C59.064057 0.64654085 64.84348062 0.70854235 70.62285185 0.77531147 C72.02189369 0.79138533 73.4209433 0.80679597 74.81999969 0.82154846 C79.41549989 0.87107485 84.00981543 0.94905823 88.60470366 1.04109049 C90.34323859 1.06026026 90.34323859 1.06026026 92.11689544 1.0798173 C93.70853011 1.11851938 93.70853011 1.11851938 95.33231902 1.15800333 C96.25348415 1.17472023 97.17464929 1.19143713 98.12372851 1.2086606 C101.07714715 1.70407116 102.46805883 2.5018711 104.57418609 4.61970377 C104.96659633 7.6489963 105.11136381 10.30969373 105.07027984 13.33845377 C105.07173507 14.19273966 105.0731903 15.04702555 105.07468963 15.92719889 C105.07303017 17.73277558 105.06146352 19.53836635 105.04073882 21.34382486 C105.01179213 24.10957196 105.0201264 26.87340177 105.03317046 29.63923502 C105.0269328 31.3931506 105.01854163 33.14706012 105.00777984 34.90095377 C105.01071548 35.72913614 105.01365111 36.55731852 105.01667571 37.41059732 C104.92340425 43.07931043 104.92340425 43.07931043 103.46298289 45.33922148 C100.6366855 47.25526864 98.3414272 46.98819407 94.94938445 46.98046732 C94.27303504 46.98303059 93.59668562 46.98559387 92.89984077 46.98823482 C90.6286948 46.99318464 88.35821048 46.97666083 86.08712554 46.96027994 C84.4610881 46.95943392 82.83504952 46.95990831 81.20901275 46.96160746 C76.78980989 46.96246983 72.37085025 46.944805 67.95170403 46.92388558 C63.33525117 46.90515905 58.71879302 46.90337152 54.10230803 46.89980936 C45.35815172 46.89047705 36.61410763 46.86584724 27.87000078 46.83576089 C17.91608563 46.80225376 7.96216517 46.78574016 -1.99179232 46.77067459 C-22.46986221 46.73929871 -42.947831 46.68651518 -63.42581391 46.61970377 C-60.32569188 43.49243072 -57.17451813 40.48895785 -53.87210298 37.57551432 C-46.17826841 30.71981565 -37.37909383 22.72739417 -33.9958365 12.7405839 C-28.2238487 -2.75063564 -14.30542806 -0.39915662 0 0 Z " fill="#000000" transform="translate(313.42581391334534,201.38029623031616)"/>
<path d="M0 0 C18.2018976 -0.07003081 36.40376031 -0.12295904 54.60576344 -0.15543652 C63.05696423 -0.1709161 71.50808139 -0.19202638 79.95922852 -0.22631836 C87.32385983 -0.25618741 94.68843059 -0.27556706 102.05312079 -0.28226548 C105.9539503 -0.286182 109.85460656 -0.2954088 113.75538063 -0.31719017 C117.42514341 -0.33751606 121.09466115 -0.34384179 124.76447487 -0.33932304 C126.75706731 -0.34054502 128.74963292 -0.35670752 130.74215698 -0.3732605 C131.92426254 -0.36913651 133.1063681 -0.36501251 134.32429504 -0.36076355 C135.35393781 -0.36352893 136.38358057 -0.36629431 137.44442463 -0.36914349 C140 0 140 0 141.82947826 1.28048229 C143.92988688 4.36602073 143.44639072 8.10855663 143.43359375 11.71875 C143.4388356 12.57303589 143.44407745 13.42732178 143.44947815 14.30749512 C143.45589938 16.11302605 143.45456002 17.91859882 143.44604492 19.72412109 C143.43753074 22.49001317 143.46629979 25.25384309 143.49804688 28.01953125 C143.49965885 29.77343688 143.49908143 31.52734617 143.49609375 33.28125 C143.50732773 34.10943237 143.51856171 34.93761475 143.53013611 35.79089355 C143.46018026 41.53966425 143.46018026 41.53966425 141.28106308 43.71951771 C138.61429385 45.21651742 137.0449231 45.37039533 134.00128174 45.36076355 C132.99449875 45.36488754 131.98771576 45.36901154 130.95042419 45.3732605 C129.85206741 45.36247467 128.75371063 45.35168884 127.62207031 45.34057617 C126.46081131 45.34101425 125.29955231 45.34145233 124.10310364 45.34190369 C120.2612736 45.33981216 116.41987889 45.31646312 112.578125 45.29296875 C109.915825 45.28737409 107.25354917 45.28295583 104.59124756 45.28010559 C98.29788826 45.27078412 92.00468544 45.24616907 85.71139503 45.21605712 C78.5458017 45.1825162 71.38020088 45.1660279 64.21454859 45.15097082 C49.47628572 45.11961954 34.73814559 45.06685711 20 45 C19.80955109 44.40770599 19.61910217 43.81541199 19.42288208 43.20516968 C18.54110177 40.47575147 17.6495265 37.74962573 16.7578125 35.0234375 C16.3088562 33.62629517 16.3088562 33.62629517 15.85083008 32.20092773 C12.2041743 21.10557692 6.97182012 11.36838328 0 2 C0 1.34 0 0.68 0 0 Z " fill="#000000" transform="translate(275,88)"/>
<path d="M0 0 C25.27581581 2.9293164 49.82913798 9.14392854 74 17 C56.10167324 54.37751594 6.34460055 84.25454412 -31.1640625 97.62890625 C-40.68072678 100.88884279 -50.13317605 103.99547682 -60 106 C-58.50921226 102.87389282 -56.96897051 100.69804703 -54.5 98.25 C-53.8915625 97.63640625 -53.283125 97.0228125 -52.65625 96.390625 C-51 95 -51 95 -49 95 C-48.7421875 94.41863281 -48.484375 93.83726562 -48.21875 93.23828125 C-46.89785509 90.81240694 -45.4133848 89.17538134 -43.5 87.1875 C-21.58448777 62.93380473 -10.05421851 30.44810654 0 0 Z " fill="#000000" transform="translate(366,371)"/>
<path d="M0 0 C0.25579834 0.77375977 0.51159668 1.54751953 0.77514648 2.34472656 C6.07145991 18.27260164 11.55214106 33.92195579 19 49 C19.33209473 49.67659668 19.66418945 50.35319336 20.00634766 51.05029297 C27.15386587 65.44129309 36.04428082 80.50991579 47.75390625 91.671875 C49 93 49 93 49 95 C49.87398437 95.38285156 49.87398437 95.38285156 50.765625 95.7734375 C53.21388223 97.11741087 54.81743248 98.61810296 56.75 100.625 C57.36359375 101.25664062 57.9771875 101.88828125 58.609375 102.5390625 C59.06828125 103.02117187 59.5271875 103.50328125 60 104 C59.67 104.66 59.34 105.32 59 106 C30.98808128 98.34060431 3.63862916 88.33026935 -20 71 C-20.95261719 70.31808594 -21.90523437 69.63617188 -22.88671875 68.93359375 C-41.30803785 55.47278672 -63.93355944 38.01669484 -74 17 C-21.69591181 0 -21.69591181 0 0 0 Z " fill="#000000" transform="translate(146,371)"/>
<path d="M0 0 C12.46496954 -0.09257218 24.92985766 -0.16370009 37.39510059 -0.20724869 C43.18287588 -0.22814706 48.97041646 -0.25650604 54.75805664 -0.30175781 C60.34069318 -0.34513488 65.92310359 -0.36912014 71.50589561 -0.37950897 C73.63863372 -0.38691496 75.77135908 -0.40137665 77.90400124 -0.42292023 C80.88525013 -0.45184572 83.8655578 -0.45596052 86.84692383 -0.45410156 C88.17725143 -0.47567322 88.17725143 -0.47567322 89.53445435 -0.49768066 C95.47886036 -0.45742085 95.47886036 -0.45742085 98.04780579 1.79742432 C99.50833081 5.1758495 99.42754826 8.50927939 99.3984375 12.125 C99.40130768 12.90891113 99.40417786 13.69282227 99.40713501 14.50048828 C99.40917264 16.15462976 99.40366381 17.8087955 99.39111328 19.46289062 C99.3750544 21.99143471 99.39097117 24.51838049 99.41015625 27.046875 C99.40817376 28.65625352 99.40432997 30.26563105 99.3984375 31.875 C99.40451019 32.6292627 99.41058289 33.38352539 99.4168396 34.16064453 C99.37824632 37.04819487 99.19942449 39.52437046 98.07649231 42.20257568 C94.63236934 45.18382938 90.78718653 44.52186442 86.38793945 44.45410156 C85.40239075 44.45468567 84.41684204 44.45526978 83.40142822 44.45587158 C80.13835636 44.4530811 76.87619386 44.42194287 73.61328125 44.390625 C71.35312906 44.38316606 69.09297041 44.37747149 66.83280945 44.37347412 C60.87977286 44.35819059 54.92712572 44.31888497 48.97424316 44.2746582 C42.90150217 44.23376432 36.82869833 44.21547567 30.75585938 44.1953125 C18.83706833 44.15239367 6.91856653 44.08410918 -5 44 C-4.88275574 43.46352844 -4.76551147 42.92705688 -4.64471436 42.37432861 C-2.36314354 31.81384255 -0.40734788 21.59269938 -0.25 10.75 C-0.22035156 9.69554687 -0.19070313 8.64109375 -0.16015625 7.5546875 C-0.09147548 5.03639275 -0.03782933 2.51891142 0 0 Z " fill="#000000" transform="translate(297,146)"/>
</svg>
